<?xml version="1.0" encoding="utf-8"?>
<!-- Generator: Adobe Illustrator 27.1.0, SVG Export Plug-In . SVG Version: 6.00 Build 0)  -->
<svg version="1.1" id="Layer_1" xmlns="http://www.w3.org/2000/svg" xmlns:xlink="http://www.w3.org/1999/xlink" x="0px" y="0px"
	 viewBox="0 0 500 500" style="enable-background:new 0 0 500 500;" xml:space="preserve">
<style type="text/css">
	.st0{fill:#FFFFFF;}
	.st1{fill:#322C4D;}
</style>
<rect x="-50" y="-50" class="st0" width="600" height="600"/>
<rect x="-50" y="-50" class="st0" width="600" height="600"/>
<rect x="-50" y="-50" class="st1" width="600" height="600"/>
<g>
	<path class="st0" d="M318,278.2l-9.9-109.9c-0.1-0.7-0.3-1.4-0.6-2.1s-0.8-1.2-1.3-1.7c-0.8-0.7-1.7-1.2-2.7-1.4
		c-0.4-0.1-0.8-0.1-1.2-0.1l-20.4,0v-8.9c0-17.2-13.8-31.3-30.9-31.3c-17.1-0.1-31.1,13.9-31.1,31v9.2l-20.4,0c-0.4,0-0.8,0-1.2,0.1
		c-1.1,0.2-2,0.7-2.7,1.4c-0.5,0.5-1,1.1-1.3,1.7s-0.5,1.3-0.6,2.1L184,278.7c-0.1,1.1,0.1,2.1,0.5,3c0.5,1,1.1,1.7,2,2.3
		c1,0.7,2.1,1,3.3,1h95.5c5.4,0,8.7-5.8,5.9-10.4l-0.9-1.6h0.2l-26-43.9c3.9-1.4,7.1-3.8,9.7-7c1.6-2,2.8-4.1,3.6-6.5
		c0.8-2.4,1.2-4.8,1.2-7.3c0-0.7,0-1.5-0.1-2.2c-0.1-0.7-0.2-1.4-0.3-2.2c-0.1-0.7-0.3-1.4-0.5-2.1c-0.2-0.7-0.5-1.4-0.7-2.1
		c-0.3-0.7-0.6-1.3-0.9-2c-0.3-0.6-0.7-1.3-1.1-1.9c-0.4-0.6-0.8-1.2-1.3-1.8c-0.5-0.6-1-1.1-1.5-1.6c-0.5-0.5-1.1-1-1.6-1.5
		c-0.6-0.5-1.2-0.9-1.8-1.3c-0.6-0.4-1.2-0.8-1.9-1.1c-0.6-0.3-1.3-0.7-2-0.9c-0.7-0.3-1.4-0.5-2.1-0.7c-0.7-0.2-1.4-0.4-2.1-0.5
		c-0.7-0.1-1.4-0.3-2.2-0.3c-0.7-0.1-1.5-0.1-2.2-0.1h-20.5c-0.4,0-0.8,0-1.3,0.1c-0.4,0.1-0.8,0.2-1.2,0.4
		c-0.4,0.2-0.8,0.4-1.1,0.6c-0.4,0.2-0.7,0.5-1,0.8c-0.3,0.3-0.6,0.6-0.8,1c-0.2,0.4-0.4,0.7-0.6,1.1c-0.2,0.4-0.3,0.8-0.4,1.2
		s-0.1,0.8-0.1,1.3v63.7c0,0.4,0.1,0.8,0.1,1.2c0.1,0.4,0.2,0.8,0.4,1.2c0.2,0.4,0.4,0.7,0.6,1.1c0.2,0.3,0.5,0.7,0.8,0.9
		c0.3,0.3,0.6,0.5,1,0.8c0.4,0.2,0.7,0.4,1.1,0.6c0.4,0.2,0.8,0.3,1.2,0.4c0.4,0.1,0.8,0.1,1.3,0.1c0.4,0,0.8,0,1.3-0.1
		c0.4-0.1,0.8-0.2,1.2-0.4c0.4-0.2,0.8-0.3,1.1-0.6c0.4-0.2,0.7-0.5,1-0.8c0.3-0.3,0.6-0.6,0.8-0.9c0.2-0.3,0.4-0.7,0.6-1.1
		c0.2-0.4,0.3-0.8,0.4-1.2c0.1-0.4,0.1-0.8,0.1-1.2V231h8l25.4,42h-80.1l8.9-99h91.9l8.4,93.8l1.4,12.3c0.1,0.7,0.3,1.3,0.6,1.9
		c0.3,0.6,0.7,1.1,1.2,1.6c0.5,0.5,1.1,0.8,1.7,1.1c0.6,0.2,1.3,0.4,2,0.4h-0.2c0.4,0,0.8,0,1.1-0.1c0.4-0.1,0.7-0.2,1.1-0.3
		c0.4-0.1,0.7-0.3,1-0.5c0.3-0.2,0.6-0.5,0.9-0.7c0.3-0.3,0.5-0.6,0.7-0.9c0.2-0.3,0.4-0.7,0.5-1c0.1-0.4,0.3-0.7,0.3-1.1
		c0.1-0.4,0.1-0.8,0.1-1.1C318.1,278.9,318,278.5,318,278.2z M257,218h-14v-19h14c5.2,0,9.4,4.3,9.4,9.6c0,0.6-0.1,1.2-0.2,1.8
		c-0.1,0.6-0.3,1.2-0.5,1.8c-0.2,0.6-0.5,1.1-0.9,1.6s-0.7,1-1.2,1.4c-0.4,0.4-0.9,0.8-1.4,1.2c-0.5,0.3-1.1,0.6-1.6,0.9
		c-0.6,0.2-1.2,0.4-1.8,0.5C258.2,217.9,257.6,218,257,218z M271,163h-39l0-9.1c0-0.7,0-1.3,0.1-2c0.2-1.9,0.7-3.7,1.4-5.5
		c0.5-1.2,1.1-2.3,1.8-3.3c0.7-1.1,1.5-2,2.4-2.9c0.9-0.9,1.9-1.7,3-2.4c1.1-0.7,2.2-1.3,3.4-1.8c1.2-0.5,2.4-0.8,3.7-1.1
		c1.3-0.2,2.5-0.4,3.8-0.4s2.5,0.1,3.8,0.4c1.3,0.2,2.5,0.6,3.7,1.1c1.2,0.5,2.3,1.1,3.4,1.8c1.1,0.7,2,1.5,3,2.4
		c0.9,0.9,1.7,1.9,2.4,2.9c0.7,1.1,1.3,2.2,1.8,3.3c0.5,1.2,0.9,2.4,1.1,3.6c0.3,1.2,0.4,2.5,0.4,3.8V163z"/>
</g>
<g>
	<g transform="translate(129.27312, 280.207657)">
		<g>
			<path class="st0" d="M47.3,84c-1.7,0-3.1,1-3.1,2.6c0,1.5,1.1,2.2,2.8,2.5c1.6,0.4,2.2,0.9,2.2,2c0,1-0.8,1.5-1.9,1.5
				c-1.2,0-2-0.7-2.3-1.9h-1.2c0.2,1.8,1.5,2.8,3.5,2.8c1.8,0,3.2-1,3.2-2.7c0-1.6-1-2.4-3-2.9c-1.4-0.3-2-0.8-2-1.7
				c0-1,0.8-1.4,1.8-1.4c1.2,0,1.8,0.7,1.9,1.8h1.2C50.2,85.2,49.2,84,47.3,84z"/>
		</g>
	</g>
</g>
<g>
	<g transform="translate(140.260809, 280.207657)">
		<g>
			<path class="st0" d="M53.6,86.3h-1.2v3.1c0,2.4-0.9,3.2-2,3.2c-1,0-1.5-0.5-1.6-1.3c0-0.4-0.1-0.7-0.1-1v-4h-1.1v4.2
				c0,0.6,0,0.9,0.1,1.2c0.2,1,1,1.8,2.5,1.8c0.7,0,1.2-0.1,1.8-0.6l0.4-0.8v1.2h1.2V86.3z"/>
		</g>
	</g>
</g>
<g>
	<g transform="translate(151.318479, 280.207657)">
		<g>
			<path class="st0" d="M55,86.2c-0.7,0-1.5,0.2-1.9,0.6l-0.5,0.8v-1.1h-1.1V96h1.1v-3.6l0.5,0.7c0.4,0.3,1.1,0.5,1.7,0.5
				c1.8,0,3.5-1.2,3.5-3.8C58.2,87.7,57,86.2,55,86.2z M54.7,92.7c-1,0-2.2-0.7-2.2-2.5v-0.4c0-2,1.1-2.8,2.2-2.8
				c1.4,0,2.1,1.3,2.1,2.9C56.9,91.8,56,92.7,54.7,92.7z"/>
		</g>
	</g>
</g>
<g>
	<g transform="translate(162.566063, 280.207657)">
		<g>
			<path class="st0" d="M61,89.7c0-2.1-1.1-3.5-3-3.5c-1.9,0-3.4,1.5-3.4,3.7c0,2.5,1.4,3.7,3.2,3.7c1.5,0,2.8-0.8,3.1-2.5h-1.2
				c-0.2,1-0.9,1.6-1.8,1.6c-1,0-1.9-0.6-2-2.5h5.1C61,90,61,89.8,61,89.7z M57.9,87c1.2,0,1.8,0.8,1.9,2.3h-4
				C56,87.8,56.8,87,57.9,87z"/>
		</g>
	</g>
</g>
<g>
	<g transform="translate(173.193893, 280.207657)">
		<g>
			<path class="st0" d="M61.5,86.2c-0.3,0-0.7,0.1-1,0.3l-0.6,0.9v-1.1h-1.1v7.1h1.1v-4c0-1.6,0.9-2.3,2.1-2.2v-0.9
				C61.8,86.2,61.7,86.2,61.5,86.2z"/>
		</g>
	</g>
</g>
<g>
	<g transform="translate(181.632594, 280.207657)">
	</g>
</g>
<g>
	<g transform="translate(188.931739, 280.207657)">
		<g>
			<path class="st0" d="M73.5,84.2h-1.9l-2.7,8.2l-2.7-8.2h-1.9v9.2h1.1v-4.7c0-1.1,0-2.4,0-3.4c0.3,1,0.7,2.3,1.1,3.4l1.7,4.8h1.4
				l1.6-4.7c0.4-1.1,0.8-2.4,1.1-3.4c0,1,0,2.3,0,3.4v4.7h1.1V84.2z"/>
		</g>
	</g>
</g>
<g>
	<g transform="translate(202.728323, 280.207657)">
		<g>
			<path class="st0" d="M72.6,93.4h1.2c-0.1-0.8-0.1-1.3-0.1-1.8v-2.7c0-0.3,0-0.7,0-0.9c-0.1-1.2-0.8-1.9-2.5-1.9
				c-1.6,0-2.6,0.9-2.7,2.4h1.2c0.1-1,0.6-1.5,1.5-1.5c0.9,0,1.3,0.4,1.4,1.1c0,0.3,0,0.5,0,0.9v0.2H72c-2.8,0-4,0.8-4,2.4
				c0,1.3,1,2,2.3,2c0.7,0,1.3-0.1,1.8-0.4l0.4-0.8L72.6,93.4z M70.7,92.7c-0.9,0-1.4-0.4-1.4-1.2c0-1.2,1.2-1.6,3.2-1.5v0.7
				C72.5,92,71.8,92.7,70.7,92.7z"/>
		</g>
	</g>
</g>
<g>
	<g transform="translate(213.176229, 280.207657)">
		<g>
			<path class="st0" d="M74.8,86.2c-0.3,0-0.7,0.1-1,0.3l-0.6,0.9v-1.1H72v7.1h1.1v-4c0-1.6,0.9-2.3,2.1-2.2v-0.9
				C75.2,86.2,75,86.2,74.8,86.2z"/>
		</g>
	</g>
</g>
<g>
	<g transform="translate(221.61493, 280.207657)">
		<g>
			<path class="st0" d="M79.2,93.4h1.6l-3.3-3.7l3.3-3.3h-1.5L76,89.9v-6.3h-1.1v9.8H76v-2.3l0.7-0.7L79.2,93.4z"/>
		</g>
	</g>
</g>
<g>
	<g transform="translate(231.972874, 280.207657)">
		<g>
			<path class="st0" d="M84.1,89.7c0-2.1-1.1-3.5-3-3.5c-1.9,0-3.4,1.5-3.4,3.7c0,2.5,1.4,3.7,3.2,3.7c1.5,0,2.8-0.8,3.1-2.5h-1.2
				c-0.2,1-0.9,1.6-1.8,1.6c-1,0-1.9-0.6-2-2.5h5.1C84.1,90,84.1,89.8,84.1,89.7z M81.1,87c1.2,0,1.8,0.8,1.9,2.3h-4
				C79.1,87.8,79.9,87,81.1,87z"/>
		</g>
	</g>
</g>
<g>
	<g transform="translate(242.600704, 280.207657)">
		<g>
			<path class="st0" d="M83.2,87.3h1.3v-0.9h-1.3v-1.6h-1.1v1.6h-0.9v0.9h0.9v4.1c0,0.4,0,0.7,0,0.9c0.1,0.9,0.5,1.2,1.4,1.2
				c0.3,0,0.6,0,1-0.1v-0.8c-0.9,0.1-1.2,0-1.2-0.7c0-0.2,0-0.3,0-0.5V87.3z"/>
		</g>
	</g>
</g>
<g>
	<g transform="translate(122.946325, 260.957664)">
		<g>
			<path class="st0" d="M76.3,76.5c0.5,4.9,1.5,8.4,3,10.4h-9.1c-1-2.8-1.7-5.8-2-9.2c-0.6-4.7-2.4-7.1-5.6-7.4
				c-0.8,0-1.8-0.1-3.2-0.1h-4.8V87h-8.3V45.6h15.1c2.3,0,4.3,0.1,6,0.3c3.3,0.4,5.9,1.5,7.9,3.3c2,1.8,3,4.3,3,7.7
				c0,2.6-0.7,4.8-2.2,6.5c-1.4,1.7-3.4,2.9-5.9,3.6C73.8,68.3,75.8,71.5,76.3,76.5z M54.6,64.1h5.7c1.6,0,2.8,0,3.4-0.1
				c4-0.4,5.9-2.3,5.9-5.9c0-1.9-0.5-3.3-1.4-4.2c-0.9-0.9-2.3-1.5-4-1.7c-1-0.1-2.1-0.2-3.5-0.2h-6.1V64.1z"/>
		</g>
	</g>
</g>
<g>
	<g transform="translate(154.671294, 260.957664)">
		<g>
			<path class="st0" d="M90.5,45.6v24.5c0,2,0,3.6-0.1,4.9c-0.3,3.8-1.8,6.8-4.6,9.2c-2.8,2.4-6.9,3.6-12.3,3.6
				c-5.5,0-9.6-1.2-12.4-3.6c-2.8-2.4-4.3-5.5-4.6-9.2c-0.1-1.3-0.1-2.9-0.1-4.9V45.6h8.2V71c0,1.4,0,2.4,0.1,3
				c0.2,2.4,1,4.3,2.5,5.7c1.5,1.3,3.5,2,6.3,2c2.7,0,4.8-0.7,6.2-2c1.5-1.3,2.3-3.2,2.5-5.7c0.1-0.6,0.1-1.6,0.1-3V45.6H90.5z"/>
		</g>
	</g>
</g>
<g>
	<g transform="translate(188.556266, 260.957664)">
		<g>
			<path class="st0" d="M81.9,44.7c4.7,0,8.3,1.2,10.8,3.5c2.5,2.4,4,5.5,4.5,9.5h-8.5c-0.2-2.2-1-3.8-2.2-5c-1.2-1.2-2.9-1.8-5-1.8
				c-1.7,0-3.1,0.4-4.2,1.3c-1.1,0.8-1.6,2.1-1.6,3.6c0,1.8,0.6,3.1,1.9,4.1c1.3,1,3.6,1.9,6.9,2.6c4.5,1,7.9,2.6,10,4.8
				c2.1,2.1,3.2,4.8,3.2,8.2c0,3.8-1.5,6.7-4.4,8.9c-3,2.2-6.6,3.3-10.9,3.3c-5,0-9.1-1.1-12.1-3.3c-3-2.2-4.7-5.5-5.1-9.8h8.5
				c0.4,2.2,1.4,3.9,3,5.1c1.6,1.2,3.4,1.8,5.6,1.8c1.9,0,3.5-0.5,4.8-1.4c1.3-1,2-2.2,2-3.8c0-1.8-0.6-3.2-1.9-4.2
				c-1.2-1.1-3.4-2-6.4-2.7c-4.6-1.1-8.1-2.6-10.4-4.5c-2.3-1.9-3.4-4.6-3.4-8.1c0-3.7,1.4-6.6,4.3-8.8
				C74.3,45.8,77.8,44.7,81.9,44.7z"/>
		</g>
	</g>
</g>
<g>
	<g transform="translate(218.211242, 260.957664)">
		<g>
			<path class="st0" d="M114,45.6V87h-8.2V70H86.4v17h-8.3V45.6h8.3v17.8h19.4V45.6H114z"/>
		</g>
	</g>
</g>
</svg>
