<?xml version="1.0" encoding="UTF-8"?>
<svg id="Layer_2" data-name="Layer 2" xmlns="http://www.w3.org/2000/svg" viewBox="0 0 134.13 162.21">
  <defs>
    <style>
      .cls-1 {
        fill: #322c4d;
      }
    </style>
  </defs>
  <g id="Layer_1-2" data-name="Layer 1">
    <path class="cls-1" d="m134.06,155.44l-9.86-109.93c-.06-.72-.26-1.41-.58-2.06s-.75-1.22-1.29-1.71c-.77-.7-1.67-1.17-2.72-1.41-.38-.09-.77-.11-1.16-.11h-20.38s0-8.88,0-8.88C98.07,14.18,84.29.05,67.16,0c-17.14-.05-31.09,13.89-31.09,31.03v9.18H15.67c-.39,0-.78.02-1.16.11-1.06.25-1.96.71-2.72,1.41-.54.49-.96,1.06-1.29,1.71s-.52,1.34-.58,2.06L.03,155.87c-.1,1.06.09,2.08.55,3.04.46.97,1.14,1.74,2.03,2.33,1.01.66,2.11.98,3.31.97h95.51c5.36,0,8.68-5.83,5.95-10.44l-.92-1.56h.25l-26.04-43.9c3.9-1.44,7.15-3.79,9.74-7.03,1.57-1.95,2.77-4.11,3.6-6.47.83-2.37,1.23-4.8,1.23-7.3,0-.73-.04-1.45-.11-2.18s-.18-1.45-.32-2.17c-.14-.71-.32-1.42-.53-2.12-.21-.7-.46-1.39-.74-2.06-.28-.68-.59-1.33-.94-1.98-.34-.64-.72-1.27-1.13-1.88-.4-.61-.84-1.19-1.3-1.75-.46-.57-.95-1.1-1.47-1.62-.52-.51-1.06-1-1.62-1.47-.57-.46-1.15-.89-1.76-1.3-.61-.4-1.23-.78-1.87-1.13-.64-.34-1.3-.65-1.98-.93-.68-.28-1.36-.53-2.06-.74-.7-.21-1.4-.39-2.12-.53-.72-.15-1.44-.25-2.17-.32-.72-.07-1.45-.11-2.18-.11h-20.45c-.42,0-.84.04-1.25.13-.41.08-.81.2-1.2.36-.39.16-.75.36-1.1.6-.35.23-.68.5-.97.8-.29.3-.56.62-.8.97-.23.35-.43.72-.59,1.11-.16.39-.28.78-.37,1.2s-.12.83-.13,1.25v63.72c.01.41.06.82.14,1.22.09.4.22.79.38,1.17.17.38.37.74.61,1.08s.5.65.81.94.63.55.98.77c.35.23.72.42,1.11.58.39.16.79.27,1.2.35.41.08.83.12,1.26.12s.84-.04,1.25-.12c.41-.08.82-.2,1.21-.35.39-.16.76-.35,1.11-.58.35-.22.68-.48.98-.77.3-.29.57-.6.81-.94s.44-.7.61-1.08.29-.77.38-1.17c.09-.4.14-.81.14-1.22v-25.12h8.02l25.42,42H12.38l8.89-99h91.87l8.42,93.78,1.36,12.26c.07.68.27,1.33.58,1.94s.73,1.14,1.24,1.6c.51.46,1.09.81,1.73,1.06.64.25,1.3.37,1.99.37h-.15c.38,0,.76-.04,1.14-.11s.74-.18,1.09-.33c.35-.15.69-.32,1.01-.54.32-.21.61-.45.88-.72.27-.27.51-.57.72-.88.21-.32.39-.66.54-1.01.15-.35.26-.72.33-1.1.08-.37.11-.75.11-1.13,0-.32-.03-.64-.08-.96Zm-60.98-60.23h-14v-19h14c5.21,0,9.45,4.28,9.45,9.55,0,.62-.06,1.24-.18,1.84-.12.61-.3,1.2-.54,1.77-.24.57-.53,1.12-.88,1.63s-.74,1-1.17,1.43-.92.83-1.43,1.17-1.06.64-1.63.88c-.57.23-1.16.42-1.77.54s-1.22.18-1.84.18Zm14-55h-39v-9.14c0-.66.01-1.32.09-1.97.21-1.9.67-3.71,1.4-5.46.49-1.17,1.09-2.29,1.8-3.34.71-1.05,1.52-2.03,2.43-2.93s1.89-1.7,2.96-2.4c1.07-.71,2.19-1.3,3.37-1.79,1.18-.48,2.4-.85,3.66-1.1s2.52-.37,3.81-.37,2.55.12,3.81.37c1.25.25,2.47.61,3.66,1.1,1.18.49,2.3,1.08,3.37,1.79,1.07.7,2.05,1.51,2.96,2.4.9.9,1.71,1.88,2.43,2.93.71,1.06,1.31,2.17,1.8,3.34.49,1.18.86,2.39,1.11,3.63.25,1.24.38,2.51.38,3.78v9.16Z"/>
  </g>
</svg>