<svg xmlns="http://www.w3.org/2000/svg" xmlns:xlink="http://www.w3.org/1999/xlink" width="500" zoomAndPan="magnify" viewBox="0 0 375 374.999991" height="500" preserveAspectRatio="xMidYMid meet" version="1.0"><defs><g/><clipPath id="2635db1d29"><path d="M 138.125 92.042969 L 238.625 92.042969 L 238.625 213.542969 L 138.125 213.542969 Z M 138.125 92.042969 " clip-rule="nonzero"/></clipPath></defs><rect x="-37.5" width="450" fill="#ffffff" y="-37.499999" height="449.999989" fill-opacity="1"/><rect x="-37.5" width="450" fill="#ffffff" y="-37.499999" height="449.999989" fill-opacity="1"/><rect x="-37.5" width="450" fill="#322c4d" y="-37.499999" height="449.999989" fill-opacity="1"/><g clip-path="url(#2635db1d29)"><path fill="#ffffff" d="M 238.566406 208.421875 L 231.175781 126.152344 C 231.128906 125.613281 230.984375 125.097656 230.742188 124.609375 C 230.5 124.121094 230.179688 123.695312 229.777344 123.328125 C 229.375 122.960938 228.921875 122.679688 228.414062 122.480469 C 227.90625 122.285156 227.378906 122.1875 226.835938 122.1875 L 211.601562 122.1875 L 211.601562 115.539062 C 211.601562 102.703125 201.28125 92.128906 188.441406 92.09375 C 175.601562 92.054688 165.148438 102.488281 165.148438 115.316406 L 165.148438 122.1875 L 149.902344 122.1875 C 149.355469 122.1875 148.832031 122.285156 148.324219 122.480469 C 147.816406 122.679688 147.363281 122.960938 146.960938 123.328125 C 146.558594 123.695312 146.238281 124.121094 145.996094 124.609375 C 145.753906 125.097656 145.609375 125.613281 145.5625 126.152344 L 138.144531 208.746094 C 138.070312 209.542969 138.210938 210.300781 138.554688 211.019531 C 138.902344 211.742188 139.410156 212.324219 140.074219 212.765625 C 140.828125 213.257812 141.65625 213.5 142.554688 213.492188 L 213.832031 213.492188 C 217.851562 213.492188 220.339844 209.117188 218.289062 205.660156 L 217.765625 204.777344 L 217.753906 204.777344 L 198.316406 172.007812 C 201.226562 170.929688 203.652344 169.179688 205.585938 166.757812 C 206.757812 165.300781 207.652344 163.6875 208.273438 161.925781 C 208.890625 160.160156 209.195312 158.34375 209.191406 156.472656 C 209.191406 155.929688 209.164062 155.386719 209.109375 154.84375 C 209.054688 154.300781 208.976562 153.761719 208.867188 153.226562 C 208.761719 152.695312 208.628906 152.164062 208.46875 151.644531 C 208.3125 151.125 208.128906 150.609375 207.917969 150.109375 C 207.710938 149.605469 207.476562 149.113281 207.21875 148.632812 C 206.964844 148.152344 206.683594 147.683594 206.378906 147.230469 C 206.078125 146.777344 205.753906 146.34375 205.40625 145.921875 C 205.0625 145.5 204.695312 145.097656 204.3125 144.710938 C 203.925781 144.328125 203.523438 143.960938 203.101562 143.613281 C 202.679688 143.269531 202.242188 142.945312 201.789062 142.640625 C 201.335938 142.339844 200.871094 142.058594 200.390625 141.800781 C 199.910156 141.546875 199.417969 141.3125 198.914062 141.105469 C 198.410156 140.894531 197.898438 140.710938 197.375 140.550781 C 196.855469 140.394531 196.328125 140.261719 195.792969 140.15625 C 195.257812 140.046875 194.71875 139.96875 194.175781 139.914062 C 193.636719 139.859375 193.089844 139.832031 192.546875 139.832031 L 177.277344 139.832031 C 176.960938 139.832031 176.652344 139.863281 176.34375 139.925781 C 176.035156 139.984375 175.738281 140.078125 175.445312 140.195312 C 175.15625 140.316406 174.882812 140.464844 174.621094 140.640625 C 174.359375 140.8125 174.117188 141.011719 173.894531 141.234375 C 173.675781 141.457031 173.476562 141.695312 173.300781 141.957031 C 173.128906 142.21875 172.980469 142.492188 172.859375 142.785156 C 172.738281 143.074219 172.648438 143.371094 172.585938 143.679688 C 172.523438 143.988281 172.496094 144.300781 172.492188 144.613281 L 172.492188 192.054688 C 172.5 192.363281 172.535156 192.671875 172.597656 192.976562 C 172.664062 193.277344 172.757812 193.574219 172.878906 193.859375 C 173.003906 194.144531 173.152344 194.414062 173.328125 194.671875 C 173.503906 194.929688 173.699219 195.164062 173.921875 195.382812 C 174.144531 195.601562 174.382812 195.796875 174.644531 195.964844 C 174.902344 196.136719 175.175781 196.28125 175.464844 196.398438 C 175.75 196.515625 176.046875 196.605469 176.351562 196.664062 C 176.65625 196.726562 176.964844 196.757812 177.277344 196.757812 C 177.585938 196.757812 177.894531 196.726562 178.199219 196.664062 C 178.503906 196.605469 178.800781 196.515625 179.089844 196.398438 C 179.375 196.28125 179.648438 196.136719 179.910156 195.964844 C 180.167969 195.796875 180.410156 195.601562 180.628906 195.382812 C 180.851562 195.164062 181.050781 194.929688 181.226562 194.671875 C 181.402344 194.414062 181.550781 194.144531 181.671875 193.859375 C 181.792969 193.574219 181.886719 193.277344 181.953125 192.976562 C 182.019531 192.671875 182.054688 192.363281 182.058594 192.054688 L 182.058594 173.121094 L 187.960938 173.121094 L 206.664062 204.777344 L 147.25 204.777344 L 153.886719 130.902344 L 222.851562 130.902344 L 229.117188 200.679688 L 230.128906 209.800781 C 230.183594 210.308594 230.328125 210.789062 230.5625 211.242188 C 230.796875 211.695312 231.105469 212.09375 231.484375 212.433594 C 231.867188 212.777344 232.296875 213.039062 232.773438 213.21875 C 233.25 213.402344 233.742188 213.492188 234.253906 213.492188 L 234.265625 213.492188 C 234.550781 213.492188 234.835938 213.464844 235.117188 213.410156 C 235.398438 213.355469 235.667969 213.273438 235.933594 213.160156 C 236.199219 213.050781 236.449219 212.917969 236.6875 212.757812 C 236.925781 212.601562 237.144531 212.417969 237.347656 212.21875 C 237.550781 212.015625 237.730469 211.792969 237.890625 211.558594 C 238.046875 211.320312 238.183594 211.066406 238.292969 210.804688 C 238.402344 210.539062 238.484375 210.265625 238.539062 209.984375 C 238.597656 209.707031 238.625 209.421875 238.625 209.136719 C 238.625 208.898438 238.605469 208.660156 238.566406 208.421875 Z M 192.550781 163.558594 L 182.058594 163.558594 L 182.058594 149.324219 L 192.550781 149.324219 C 196.453125 149.324219 199.628906 152.53125 199.628906 156.480469 C 199.628906 156.945312 199.582031 157.40625 199.492188 157.859375 C 199.402344 158.316406 199.265625 158.757812 199.089844 159.1875 C 198.910156 159.617188 198.691406 160.023438 198.433594 160.410156 C 198.175781 160.796875 197.882812 161.15625 197.554688 161.484375 C 197.226562 161.8125 196.867188 162.105469 196.480469 162.363281 C 196.09375 162.621094 195.6875 162.839844 195.257812 163.019531 C 194.828125 163.195312 194.386719 163.332031 193.929688 163.421875 C 193.472656 163.511719 193.015625 163.558594 192.550781 163.558594 Z M 202.882812 122.1875 L 173.859375 122.1875 L 173.859375 115.316406 C 173.859375 114.363281 173.953125 113.417969 174.136719 112.484375 C 174.324219 111.550781 174.597656 110.644531 174.964844 109.761719 C 175.328125 108.882812 175.773438 108.046875 176.304688 107.253906 C 176.832031 106.464844 177.433594 105.730469 178.109375 105.054688 C 178.78125 104.382812 179.515625 103.78125 180.308594 103.253906 C 181.101562 102.722656 181.9375 102.277344 182.816406 101.910156 C 183.695312 101.546875 184.605469 101.273438 185.539062 101.085938 C 186.472656 100.898438 187.417969 100.808594 188.371094 100.808594 C 189.324219 100.808594 190.265625 100.898438 191.203125 101.085938 C 192.136719 101.273438 193.042969 101.546875 193.925781 101.910156 C 194.804688 102.277344 195.640625 102.722656 196.433594 103.253906 C 197.226562 103.78125 197.957031 104.382812 198.632812 105.054688 C 199.304688 105.730469 199.90625 106.464844 200.4375 107.253906 C 200.964844 108.046875 201.414062 108.882812 201.777344 109.761719 C 202.140625 110.644531 202.417969 111.550781 202.601562 112.484375 C 202.789062 113.417969 202.882812 114.363281 202.882812 115.316406 Z M 202.882812 122.1875 " fill-opacity="1" fill-rule="nonzero"/></g><g fill="#ffffff" fill-opacity="1"><g transform="translate(129.27312, 280.207657)"><g><path d="M 3.140625 -7.039062 C 1.871094 -7.039062 0.839844 -6.289062 0.839844 -5.097656 C 0.839844 -3.960938 1.691406 -3.46875 2.910156 -3.1875 C 4.117188 -2.910156 4.597656 -2.53125 4.597656 -1.691406 C 4.597656 -0.96875 3.960938 -0.539062 3.167969 -0.539062 C 2.269531 -0.539062 1.640625 -1.050781 1.441406 -1.960938 L 0.519531 -1.960938 C 0.667969 -0.628906 1.628906 0.140625 3.148438 0.140625 C 4.480469 0.140625 5.519531 -0.640625 5.519531 -1.847656 C 5.519531 -3.019531 4.757812 -3.640625 3.238281 -3.988281 C 2.1875 -4.230469 1.757812 -4.550781 1.757812 -5.296875 C 1.757812 -6.019531 2.339844 -6.359375 3.070312 -6.359375 C 3.9375 -6.359375 4.449219 -5.859375 4.527344 -4.988281 L 5.449219 -4.988281 C 5.320312 -6.167969 4.570312 -7.039062 3.140625 -7.039062 Z M 3.140625 -7.039062 "/></g></g></g><g fill="#ffffff" fill-opacity="1"><g transform="translate(140.260809, 280.207657)"><g><path d="M 5.140625 -5.296875 L 4.277344 -5.296875 L 4.277344 -2.96875 C 4.277344 -1.160156 3.617188 -0.539062 2.789062 -0.539062 C 2.070312 -0.539062 1.640625 -0.949219 1.558594 -1.550781 C 1.53125 -1.820312 1.519531 -2.109375 1.519531 -2.28125 L 1.519531 -5.296875 L 0.660156 -5.296875 L 0.660156 -2.121094 C 0.660156 -1.691406 0.667969 -1.480469 0.710938 -1.210938 C 0.828125 -0.480469 1.46875 0.140625 2.570312 0.140625 C 3.109375 0.140625 3.5 0.0507812 3.949219 -0.28125 L 4.277344 -0.898438 L 4.277344 0 L 5.140625 0 Z M 5.140625 -5.296875 "/></g></g></g><g fill="#ffffff" fill-opacity="1"><g transform="translate(151.318479, 280.207657)"><g><path d="M 3.398438 -5.4375 C 2.859375 -5.4375 2.300781 -5.269531 2 -5.019531 L 1.597656 -4.449219 L 1.597656 -5.296875 L 0.738281 -5.296875 L 0.738281 1.960938 L 1.597656 1.960938 L 1.597656 -0.730469 L 1.949219 -0.210938 C 2.21875 0.0117188 2.78125 0.140625 3.21875 0.140625 C 4.589844 0.140625 5.808594 -0.769531 5.808594 -2.730469 C 5.808594 -4.277344 4.949219 -5.4375 3.398438 -5.4375 Z M 3.21875 -0.519531 C 2.460938 -0.519531 1.597656 -1.039062 1.597656 -2.410156 L 1.597656 -2.699219 C 1.597656 -4.21875 2.390625 -4.777344 3.269531 -4.777344 C 4.328125 -4.777344 4.867188 -3.828125 4.867188 -2.628906 C 4.867188 -1.238281 4.148438 -0.519531 3.21875 -0.519531 Z M 3.21875 -0.519531 "/></g></g></g><g fill="#ffffff" fill-opacity="1"><g transform="translate(162.566063, 280.207657)"><g><path d="M 5.089844 -2.800781 C 5.089844 -4.347656 4.277344 -5.4375 2.820312 -5.4375 C 1.371094 -5.4375 0.300781 -4.347656 0.300781 -2.628906 C 0.300781 -0.761719 1.328125 0.140625 2.710938 0.140625 C 3.800781 0.140625 4.808594 -0.429688 5.019531 -1.710938 L 4.117188 -1.710938 C 4 -0.949219 3.4375 -0.519531 2.75 -0.519531 C 1.96875 -0.519531 1.308594 -0.988281 1.230469 -2.390625 L 5.070312 -2.390625 C 5.089844 -2.578125 5.089844 -2.71875 5.089844 -2.800781 Z M 2.800781 -4.777344 C 3.667969 -4.777344 4.140625 -4.148438 4.21875 -3.050781 L 1.238281 -3.050781 C 1.339844 -4.179688 1.960938 -4.777344 2.800781 -4.777344 Z M 2.800781 -4.777344 "/></g></g></g><g fill="#ffffff" fill-opacity="1"><g transform="translate(173.193893, 280.207657)"><g><path d="M 2.820312 -5.417969 C 2.570312 -5.417969 2.300781 -5.328125 2.078125 -5.179688 L 1.597656 -4.46875 L 1.597656 -5.296875 L 0.738281 -5.296875 L 0.738281 0 L 1.597656 0 L 1.597656 -3.019531 C 1.597656 -4.230469 2.28125 -4.757812 3.179688 -4.699219 L 3.179688 -5.347656 C 3.078125 -5.398438 2.960938 -5.417969 2.820312 -5.417969 Z M 2.820312 -5.417969 "/></g></g></g><g fill="#ffffff" fill-opacity="1"><g transform="translate(181.632594, 280.207657)"><g/></g></g><g fill="#ffffff" fill-opacity="1"><g transform="translate(188.931739, 280.207657)"><g><path d="M 7.878906 -6.898438 L 6.488281 -6.898438 L 4.457031 -0.730469 L 2.417969 -6.898438 L 1 -6.898438 L 1 0 L 1.859375 0 L 1.859375 -3.550781 C 1.859375 -4.398438 1.859375 -5.347656 1.839844 -6.097656 C 2.058594 -5.359375 2.378906 -4.398438 2.660156 -3.578125 L 3.898438 0 L 4.980469 0 L 6.199219 -3.558594 C 6.488281 -4.398438 6.808594 -5.367188 7.039062 -6.117188 C 7.019531 -5.367188 7.019531 -4.410156 7.019531 -3.550781 L 7.019531 0 L 7.878906 0 Z M 7.878906 -6.898438 "/></g></g></g><g fill="#ffffff" fill-opacity="1"><g transform="translate(202.728323, 280.207657)"><g><path d="M 3.777344 0 L 4.640625 0 C 4.558594 -0.589844 4.539062 -0.949219 4.539062 -1.351562 L 4.539062 -3.339844 C 4.539062 -3.570312 4.527344 -3.828125 4.507812 -4.039062 C 4.417969 -4.910156 3.890625 -5.4375 2.628906 -5.4375 C 1.460938 -5.4375 0.667969 -4.789062 0.589844 -3.660156 L 1.488281 -3.660156 C 1.550781 -4.390625 1.910156 -4.777344 2.628906 -4.777344 C 3.339844 -4.777344 3.617188 -4.457031 3.660156 -3.96875 C 3.679688 -3.769531 3.679688 -3.558594 3.679688 -3.328125 L 3.679688 -3.1875 L 3.339844 -3.1875 C 1.257812 -3.1875 0.359375 -2.570312 0.359375 -1.371094 C 0.359375 -0.390625 1.109375 0.140625 2.070312 0.140625 C 2.578125 0.140625 3.039062 0.0585938 3.398438 -0.191406 L 3.6875 -0.761719 Z M 2.359375 -0.519531 C 1.710938 -0.519531 1.300781 -0.800781 1.300781 -1.441406 C 1.300781 -2.347656 2.21875 -2.660156 3.679688 -2.550781 L 3.679688 -2.007812 C 3.679688 -1.050781 3.160156 -0.519531 2.359375 -0.519531 Z M 2.359375 -0.519531 "/></g></g></g><g fill="#ffffff" fill-opacity="1"><g transform="translate(213.176229, 280.207657)"><g><path d="M 2.820312 -5.417969 C 2.570312 -5.417969 2.300781 -5.328125 2.078125 -5.179688 L 1.597656 -4.46875 L 1.597656 -5.296875 L 0.738281 -5.296875 L 0.738281 0 L 1.597656 0 L 1.597656 -3.019531 C 1.597656 -4.230469 2.28125 -4.757812 3.179688 -4.699219 L 3.179688 -5.347656 C 3.078125 -5.398438 2.960938 -5.417969 2.820312 -5.417969 Z M 2.820312 -5.417969 "/></g></g></g><g fill="#ffffff" fill-opacity="1"><g transform="translate(221.61493, 280.207657)"><g><path d="M 4.027344 0 L 5.199219 0 L 2.699219 -2.800781 L 5.167969 -5.296875 L 4.070312 -5.296875 L 1.597656 -2.628906 L 1.597656 -7.347656 L 0.738281 -7.347656 L 0.738281 0 L 1.597656 0 L 1.597656 -1.691406 L 2.097656 -2.238281 Z M 4.027344 0 "/></g></g></g><g fill="#ffffff" fill-opacity="1"><g transform="translate(231.972874, 280.207657)"><g><path d="M 5.089844 -2.800781 C 5.089844 -4.347656 4.277344 -5.4375 2.820312 -5.4375 C 1.371094 -5.4375 0.300781 -4.347656 0.300781 -2.628906 C 0.300781 -0.761719 1.328125 0.140625 2.710938 0.140625 C 3.800781 0.140625 4.808594 -0.429688 5.019531 -1.710938 L 4.117188 -1.710938 C 4 -0.949219 3.4375 -0.519531 2.75 -0.519531 C 1.96875 -0.519531 1.308594 -0.988281 1.230469 -2.390625 L 5.070312 -2.390625 C 5.089844 -2.578125 5.089844 -2.71875 5.089844 -2.800781 Z M 2.800781 -4.777344 C 3.667969 -4.777344 4.140625 -4.148438 4.21875 -3.050781 L 1.238281 -3.050781 C 1.339844 -4.179688 1.960938 -4.777344 2.800781 -4.777344 Z M 2.800781 -4.777344 "/></g></g></g><g fill="#ffffff" fill-opacity="1"><g transform="translate(242.600704, 280.207657)"><g><path d="M 1.769531 -4.597656 L 2.757812 -4.597656 L 2.757812 -5.257812 L 1.769531 -5.257812 L 1.769531 -6.488281 L 0.910156 -6.488281 L 0.910156 -5.257812 L 0.199219 -5.257812 L 0.199219 -4.597656 L 0.910156 -4.597656 L 0.910156 -1.507812 C 0.910156 -1.210938 0.910156 -0.988281 0.917969 -0.851562 C 0.96875 -0.191406 1.308594 0.078125 1.96875 0.078125 C 2.210938 0.078125 2.449219 0.0703125 2.699219 0.03125 L 2.699219 -0.601562 C 2.03125 -0.519531 1.820312 -0.628906 1.78125 -1.140625 C 1.769531 -1.28125 1.769531 -1.371094 1.769531 -1.550781 Z M 1.769531 -4.597656 "/></g></g></g><g fill="#ffffff" fill-opacity="1"><g transform="translate(122.946325, 260.957664)"><g><path d="M 26.5 -7.828125 C 26.894531 -4.140625 27.644531 -1.53125 28.75 0 L 21.953125 0 C 21.203125 -2.070312 20.695312 -4.382812 20.4375 -6.9375 C 20.007812 -10.4375 18.613281 -12.28125 16.25 -12.46875 C 15.675781 -12.5 14.863281 -12.515625 13.8125 -12.515625 L 10.21875 -12.515625 L 10.21875 0 L 4 0 L 4 -31.046875 L 15.34375 -31.046875 C 17.050781 -31.046875 18.550781 -30.972656 19.84375 -30.828125 C 22.300781 -30.523438 24.269531 -29.707031 25.75 -28.375 C 27.238281 -27.039062 27.984375 -25.113281 27.984375 -22.59375 C 27.984375 -20.644531 27.441406 -19.03125 26.359375 -17.75 C 25.285156 -16.476562 23.804688 -15.570312 21.921875 -15.03125 C 24.585938 -14.007812 26.113281 -11.609375 26.5 -7.828125 Z M 10.21875 -17.140625 L 14.484375 -17.140625 C 15.710938 -17.140625 16.554688 -17.15625 17.015625 -17.1875 C 19.984375 -17.457031 21.46875 -18.941406 21.46875 -21.640625 C 21.46875 -23.054688 21.113281 -24.097656 20.40625 -24.765625 C 19.695312 -25.441406 18.6875 -25.875 17.375 -26.0625 C 16.65625 -26.144531 15.785156 -26.1875 14.765625 -26.1875 L 10.21875 -26.1875 Z M 10.21875 -17.140625 "/></g></g></g><g fill="#ffffff" fill-opacity="1"><g transform="translate(154.671294, 260.957664)"><g><path d="M 29.203125 -31.046875 L 29.203125 -12.640625 C 29.203125 -11.171875 29.171875 -9.957031 29.109375 -9 C 28.898438 -6.175781 27.753906 -3.863281 25.671875 -2.0625 C 23.585938 -0.269531 20.503906 0.625 16.421875 0.625 C 12.316406 0.625 9.21875 -0.269531 7.125 -2.0625 C 5.039062 -3.863281 3.894531 -6.175781 3.6875 -9 C 3.625 -9.957031 3.59375 -11.171875 3.59375 -12.640625 L 3.59375 -31.046875 L 9.765625 -31.046875 L 9.765625 -12.015625 C 9.765625 -10.960938 9.796875 -10.210938 9.859375 -9.765625 C 10.003906 -7.929688 10.625 -6.507812 11.71875 -5.5 C 12.8125 -4.5 14.378906 -4 16.421875 -4 C 18.429688 -4 19.984375 -4.5 21.078125 -5.5 C 22.171875 -6.507812 22.796875 -7.929688 22.953125 -9.765625 C 23.015625 -10.210938 23.046875 -10.960938 23.046875 -12.015625 L 23.046875 -31.046875 Z M 29.203125 -31.046875 "/></g></g></g><g fill="#ffffff" fill-opacity="1"><g transform="translate(188.556266, 260.957664)"><g><path d="M 14.3125 -31.6875 C 17.851562 -31.6875 20.5625 -30.800781 22.4375 -29.03125 C 24.3125 -27.257812 25.425781 -24.890625 25.78125 -21.921875 L 19.4375 -21.921875 C 19.257812 -23.535156 18.71875 -24.789062 17.8125 -25.6875 C 16.914062 -26.59375 15.671875 -27.046875 14.078125 -27.046875 C 12.796875 -27.046875 11.75 -26.726562 10.9375 -26.09375 C 10.125 -25.46875 9.71875 -24.554688 9.71875 -23.359375 C 9.71875 -22.035156 10.203125 -21 11.171875 -20.25 C 12.148438 -19.5 13.867188 -18.835938 16.328125 -18.265625 C 19.722656 -17.484375 22.222656 -16.296875 23.828125 -14.703125 C 25.429688 -13.117188 26.234375 -11.066406 26.234375 -8.546875 C 26.234375 -5.722656 25.125 -3.488281 22.90625 -1.84375 C 20.6875 -0.195312 17.972656 0.625 14.765625 0.625 C 10.984375 0.625 7.96875 -0.203125 5.71875 -1.859375 C 3.46875 -3.523438 2.191406 -5.96875 1.890625 -9.1875 L 8.234375 -9.1875 C 8.566406 -7.53125 9.316406 -6.25 10.484375 -5.34375 C 11.648438 -4.445312 13.046875 -4 14.671875 -4 C 16.109375 -4 17.3125 -4.359375 18.28125 -5.078125 C 19.257812 -5.804688 19.75 -6.753906 19.75 -7.921875 C 19.75 -9.242188 19.273438 -10.304688 18.328125 -11.109375 C 17.390625 -11.921875 15.796875 -12.597656 13.546875 -13.140625 C 10.066406 -13.984375 7.46875 -15.097656 5.75 -16.484375 C 4.039062 -17.878906 3.1875 -19.914062 3.1875 -22.59375 C 3.1875 -25.351562 4.265625 -27.554688 6.421875 -29.203125 C 8.585938 -30.859375 11.21875 -31.6875 14.3125 -31.6875 Z M 14.3125 -31.6875 "/></g></g></g><g fill="#ffffff" fill-opacity="1"><g transform="translate(218.211242, 260.957664)"><g><path d="M 30.921875 -31.046875 L 30.921875 0 L 24.75 0 L 24.75 -12.734375 L 10.21875 -12.734375 L 10.21875 0 L 4 0 L 4 -31.046875 L 10.21875 -31.046875 L 10.21875 -17.6875 L 24.75 -17.6875 L 24.75 -31.046875 Z M 30.921875 -31.046875 "/></g></g></g></svg>